<svg version="1.1" id="Layer_1" xmlns="http://www.w3.org/2000/svg" xmlns:xlink="http://www.w3.org/1999/xlink" x="0px"
    y="0px" width="48px" height="48px" viewBox="0 0 595.275 595.275" enable-background="new 0 0 595.275 595.275"
    xml:space="preserve">
    <path id="color_x5F_1" fill="#fff"
        d="M524.35,227.438c0,1.718-0.929,3.302-2.432,4.137l-31.639,17.623    c-0.717,0.399-1.508,0.599-2.304,0.599s-1.586-0.199-2.303-0.599l-29.34-16.34l-57.408,31.979c-0.718,0.4-1.509,0.598-2.304,0.598    c-0.796,0-1.586-0.198-2.304-0.598l-59.716-33.262c-1.503-0.835-2.433-2.419-2.433-4.137c0-1.719,0.93-3.303,2.433-4.137    l59.716-33.262c1.434-0.8,3.174-0.8,4.607,0l57.408,31.979L484,206.61l-21.905-12.201c-1.503-0.834-2.433-2.418-2.433-4.137    c0-1.718,0.93-3.302,2.433-4.137l23.578-13.132c1.434-0.8,3.173-0.8,4.606,0l23.577,13.132c1.503,0.835,2.433,2.419,2.433,4.137    c0,1.719-0.93,3.303-2.433,4.137l-21.905,12.201l29.967,16.691C523.421,224.136,524.35,225.72,524.35,227.438z M457.087,275.81    v166.136c0,0.789-0.125,1.543-0.308,2.275c-0.051,0.205-0.121,0.398-0.184,0.6c-0.176,0.546-0.396,1.066-0.663,1.566    c-0.097,0.183-0.184,0.365-0.293,0.54c-0.394,0.632-0.837,1.226-1.363,1.746c-0.054,0.053-0.118,0.093-0.174,0.145    c-0.497,0.47-1.05,0.872-1.641,1.227c-0.086,0.051-0.149,0.127-0.236,0.176L259.67,557.475c-0.108,0.061-0.229,0.08-0.337,0.135    c-0.49,0.25-1.001,0.451-1.534,0.613c-0.188,0.058-0.369,0.128-0.562,0.174c-0.702,0.167-1.425,0.276-2.179,0.276    c-0.753,0-1.477-0.109-2.18-0.276c-0.19-0.046-0.372-0.116-0.561-0.174c-0.533-0.162-1.045-0.363-1.533-0.613    c-0.11-0.055-0.23-0.074-0.338-0.135L57.896,450.22c-0.089-0.049-0.15-0.125-0.236-0.176c-0.591-0.354-1.145-0.757-1.641-1.227    c-0.055-0.052-0.12-0.092-0.174-0.145c-0.526-0.521-0.971-1.114-1.364-1.746c-0.108-0.175-0.195-0.357-0.293-0.54    c-0.267-0.5-0.485-1.021-0.662-1.566c-0.063-0.201-0.134-0.395-0.185-0.6c-0.182-0.732-0.306-1.486-0.306-2.275V227.438    c0-0.789,0.124-1.542,0.306-2.274c0.051-0.205,0.121-0.398,0.185-0.6c0.177-0.546,0.396-1.067,0.662-1.566    c0.098-0.183,0.185-0.364,0.293-0.54c0.394-0.632,0.838-1.225,1.364-1.747c0.054-0.053,0.119-0.092,0.174-0.144    c0.496-0.47,1.05-0.872,1.641-1.227c0.086-0.051,0.147-0.128,0.236-0.176l192.551-107.255c2.867-1.595,6.354-1.595,9.223,0    l103.551,57.68c3.001,1.672,4.86,4.837,4.86,8.273s-1.859,6.602-4.86,8.273l-74.151,41.303l74.151,41.302    c0.087,0.049,0.149,0.125,0.236,0.177c0.59,0.354,1.143,0.757,1.64,1.227c0.055,0.052,0.121,0.091,0.175,0.144    c0.525,0.521,0.97,1.114,1.362,1.746c0.11,0.176,0.196,0.358,0.294,0.541c0.268,0.499,0.485,1.02,0.661,1.567    c0.064,0.2,0.135,0.394,0.186,0.598c0.182,0.732,0.307,1.487,0.307,2.275v31.123l75.02-40.655c2.938-1.591,6.484-1.519,9.361,0.189    C455.329,269.379,457.087,272.471,457.087,275.81z M71.979,425.828l163.615-91.135L71.979,243.557V425.828z M245.587,350.813    L81.973,441.945l163.614,91.137V350.813z M339.144,277.015l-74.15-41.302c-3.002-1.672-4.86-4.838-4.86-8.274    c0-3.436,1.858-6.602,4.86-8.274l74.15-41.302l-84.085-46.836L81.973,227.438l173.086,96.411L339.144,277.015z M428.148,441.945    L264.53,350.813v182.27L428.148,441.945z M438.144,291.715l-75.021,40.654c-2.941,1.588-6.493,1.518-9.361-0.189    c-2.866-1.707-4.624-4.798-4.624-8.137v-30.91l-74.613,41.561l163.619,91.135V291.715z">
    </path>
</svg>